<?xml version="1.0" encoding="UTF-8" standalone="no"?>
<!-- Generator: Adobe Illustrator 19.0.0, SVG Export Plug-In . SVG Version: 6.00 Build 0)  -->

<svg
   xmlns:dc="http://purl.org/dc/elements/1.1/"
   xmlns:cc="http://creativecommons.org/ns#"
   xmlns:rdf="http://www.w3.org/1999/02/22-rdf-syntax-ns#"
   xmlns:svg="http://www.w3.org/2000/svg"
   xmlns="http://www.w3.org/2000/svg"
   xmlns:xlink="http://www.w3.org/1999/xlink"
   xmlns:sodipodi="http://sodipodi.sourceforge.net/DTD/sodipodi-0.dtd"
   xmlns:inkscape="http://www.inkscape.org/namespaces/inkscape"
   version="1.1"
   id="Capa_1"
   x="0px"
   y="0px"
   viewBox="0 0 64 64"
   xml:space="preserve"
   sodipodi:docname="phone.svg"
   width="100%"
   height="100%"
   inkscape:version="0.92.4 (5da689c313, 2019-01-14)"><metadata
   id="metadata835"><rdf:RDF><cc:Work
       rdf:about=""><dc:format>image/svg+xml</dc:format><dc:type
         rdf:resource="http://purl.org/dc/dcmitype/StillImage" /><dc:title></dc:title></cc:Work></rdf:RDF></metadata>
   <defs
   id="defs852"><linearGradient
     inkscape:collect="always"
     id="linearGradient905"><stop
       style="stop-color:#ff0000;stop-opacity:1;"
       offset="0"
       id="stop901" /><stop
       style="stop-color:#ff0000;stop-opacity:0;"
       offset="1"
       id="stop903" /></linearGradient><linearGradient
     inkscape:collect="always"
     xlink:href="#linearGradient905"
     id="linearGradient907"
     x1="0.91160863"
     y1="241.3"
     x2="481.68909"
     y2="241.3"
     gradientUnits="userSpaceOnUse" /></defs><sodipodi:namedview
   pagecolor="#ffffff"
   bordercolor="#666666"
   borderopacity="1"
   objecttolerance="10"
   gridtolerance="10"
   guidetolerance="10"
   id="namedview850"
   showgrid="false"
   fit-margin-top="0"
   fit-margin-left="0"
   fit-margin-right="0"
   fit-margin-bottom="0"
   inkscape:zoom="7.6788615"
   inkscape:cx="32.470183"
   inkscape:cy="15.912456"
   inkscape:window-width="1920"
   inkscape:window-height="1017"
   inkscape:window-x="-8"
   inkscape:window-y="-8"
   inkscape:window-maximized="1"
   inkscape:current-layer="Capa_1" />
<g
   id="g817"
   transform="matrix(-0.13311772,0,0,0.132615,64.121353,0)"
   style="fill:#ff0000;fill-opacity:1">
	<path
   d="m 98.339,320.8 c 47.6,56.9 104.9,101.7 170.3,133.4 24.9,11.8 58.2,25.8 95.3,28.2 2.3,0.1 4.5,0.2 6.8,0.2 24.9,0 44.9,-8.6 61.2,-26.3 0.1,-0.1 0.3,-0.3 0.4,-0.5 5.8,-7 12.4,-13.3 19.3,-20 4.7,-4.5 9.5,-9.2 14.1,-14 21.3,-22.2 21.3,-50.4 -0.2,-71.9 l -60.1,-60.1 c -10.2,-10.6 -22.4,-16.2 -35.2,-16.2 -12.8,0 -25.1,5.6 -35.6,16.1 l -35.8,35.8 c -3.3,-1.9 -6.7,-3.6 -9.9,-5.2 -4,-2 -7.7,-3.9 -11,-6 -32.6,-20.7 -62.2,-47.7 -90.5,-82.4 -14.3,-18.1 -23.9,-33.3 -30.6,-48.8 9.4,-8.5 18.2,-17.4 26.7,-26.1 3,-3.1 6.1,-6.2 9.2,-9.3 10.8,-10.8 16.6,-23.3 16.6,-36 0,-12.7 -5.7,-25.2 -16.6,-36 l -29.8,-29.8 c -3.5,-3.5 -6.8,-6.9 -10.2,-10.4 -6.6,-6.8 -13.5,-13.8 -20.3,-20.1 C 122.139,5.3 110.039,0 97.239,0 c -12.7,0 -24.9,5.3 -35.6,15.5 l -37.4,37.4 c -13.6,13.6 -21.3,30.1 -22.9,49.2 -1.9,23.9 2.5,49.3 13.9,80 17.5,47.5 43.9,91.6 83.1,138.7 z m -72.6,-216.6 c 1.2,-13.3 6.3,-24.4 15.9,-34 L 78.839,33 c 5.8,-5.6 12.2,-8.5 18.4,-8.5 6.1,0 12.3,2.9 18,8.7 6.7,6.2 13,12.7 19.8,19.6 3.4,3.5 6.9,7 10.4,10.6 l 29.8,29.8 c 6.2,6.2 9.4,12.5 9.4,18.7 0,6.2 -3.2,12.5 -9.4,18.7 -3.1,3.1 -6.2,6.3 -9.3,9.4 -9.3,9.4 -18,18.3 -27.6,26.8 -0.2,0.2 -0.3,0.3 -0.5,0.5 -8.3,8.3 -7,16.2 -5,22.2 0.1,0.3 0.2,0.5 0.3,0.8 7.7,18.5 18.4,36.1 35.1,57.1 30,37 61.6,65.7 96.4,87.8 4.3,2.8 8.9,5 13.2,7.2 4,2 7.7,3.9 11,6 0.4,0.2 0.7,0.4 1.1,0.6 3.3,1.7 6.5,2.5 9.7,2.5 8,0 13.2,-5.1 14.9,-6.8 l 37.4,-37.4 c 5.8,-5.8 12.1,-8.9 18.3,-8.9 7.6,0 13.8,4.7 17.7,8.9 l 60.3,60.2 c 12,12 11.9,25 -0.3,37.7 -4.2,4.5 -8.6,8.8 -13.3,13.3 -7,6.8 -14.3,13.8 -20.9,21.7 -11.5,12.4 -25.2,18.2 -42.9,18.2 -1.7,0 -3.5,-0.1 -5.2,-0.2 -32.8,-2.1 -63.3,-14.9 -86.2,-25.8 -62.2,-30.1 -116.8,-72.8 -162.1,-127 -37.3,-44.9 -62.4,-86.7 -79,-131.5 -10.3,-27.5 -14.2,-49.6 -12.6,-69.7 z"
   id="path815"
   inkscape:connector-curvature="0"
   style="fill:#ff0000;fill-opacity:1" />
</g>
<g
   id="g819"
   transform="matrix(-0.13311772,0,0,0.132615,64.121353,0)"
   style="fill:#ff0000">
</g>
<g
   id="g821"
   transform="matrix(-0.13311772,0,0,0.132615,64.121353,0)"
   style="fill:#ff0000">
</g>
<g
   id="g823"
   transform="matrix(-0.13311772,0,0,0.132615,64.121353,0)"
   style="fill:#ff0000">
</g>
<g
   id="g825"
   transform="matrix(-0.13311772,0,0,0.132615,64.121353,0)"
   style="fill:#ff0000">
</g>
<g
   id="g827"
   transform="matrix(-0.13311772,0,0,0.132615,64.121353,0)"
   style="fill:#ff0000">
</g>
<g
   id="g829"
   transform="matrix(-0.13311772,0,0,0.132615,64.121353,0)"
   style="fill:#ff0000">
</g>
<g
   id="g831"
   transform="matrix(-0.13311772,0,0,0.132615,64.121353,0)"
   style="fill:#ff0000">
</g>
<g
   id="g833"
   transform="matrix(-0.13311772,0,0,0.132615,64.121353,0)"
   style="fill:#ff0000">
</g>
<g
   id="g835"
   transform="matrix(-0.13311772,0,0,0.132615,64.121353,0)"
   style="fill:#ff0000">
</g>
<g
   id="g837"
   transform="matrix(-0.13311772,0,0,0.132615,64.121353,0)"
   style="fill:#ff0000">
</g>
<g
   id="g839"
   transform="matrix(-0.13311772,0,0,0.132615,64.121353,0)"
   style="fill:#ff0000">
</g>
<g
   id="g841"
   transform="matrix(-0.13311772,0,0,0.132615,64.121353,0)"
   style="fill:#ff0000">
</g>
<g
   id="g843"
   transform="matrix(-0.13311772,0,0,0.132615,64.121353,0)"
   style="fill:#ff0000">
</g>
<g
   id="g845"
   transform="matrix(-0.13311772,0,0,0.132615,64.121353,0)"
   style="fill:#ff0000">
</g>
<g
   id="g847"
   transform="matrix(-0.13311772,0,0,0.132615,64.121353,0)"
   style="fill:#ff0000">
</g>
<path
   style="fill:#ff0000;stroke:none;stroke-width:0.0754717;fill-opacity:0"
   d="M 13.154717,60.61334 C 11.610879,60.328228 10.377775,59.648459 9.2301887,58.44988 8.8981132,58.103049 7.6288315,56.814454 6.4095627,55.586336 5.1902939,54.358217 4.0616154,53.158372 3.9013882,52.920013 3.5694444,52.426202 3.3056604,51.654025 3.3056604,51.176133 c 0,-0.461641 0.2340767,-1.15432 0.5505806,-1.629279 0.1492548,-0.223977 2.2854896,-2.41455 4.7471884,-4.867939 4.1683866,-4.154316 4.5130186,-4.479067 5.0174466,-4.728006 0.926655,-0.457307 1.601181,-0.44575 2.552709,0.04374 0.369005,0.189826 1.004675,0.779426 3.433962,3.185086 2.441827,2.418078 3.058438,2.989693 3.408457,3.159735 0.792211,0.38486 1.711973,0.38106 2.466564,-0.01019 0.234776,-0.12173 1.004224,-0.520428 1.709885,-0.885997 5.064809,-2.623826 11.085939,-7.97756 15.407712,-13.699886 2.043917,-2.706287 3.78302,-5.839351 4.027822,-7.256287 0.07235,-0.418785 0.06657,-0.580725 -0.03502,-0.981132 -0.172451,-0.679692 -0.498252,-1.106611 -1.64218,-2.151858 -0.551991,-0.504373 -1.83844,-1.761474 -2.858775,-2.793558 -1.695866,-1.715393 -1.880554,-1.927906 -2.150944,-2.475003 -0.274355,-0.555119 -0.295787,-0.645251 -0.295787,-1.243908 0,-0.769612 0.188231,-1.246763 0.785792,-1.991921 0.578382,-0.721241 8.596209,-8.6665761 9.063265,-8.9813198 0.478145,-0.3222171 1.229356,-0.5778432 1.698113,-0.5778432 0.479019,0 1.246334,0.2634433 1.747164,0.5998565 0.585988,0.3936133 6.178046,6.0222094 6.5444,6.5871585 0.983914,1.51728 1.289965,2.949882 1.165262,5.454494 -0.156955,3.152388 -1.502724,7.379254 -3.829907,12.029189 -4.217529,8.427026 -11.353286,16.915908 -19.11981,22.745425 -5.601916,4.204771 -12.166445,7.667626 -17.279321,9.115014 -2.768321,0.783676 -5.62388,1.094812 -7.265524,0.791637 z"
   id="path909"
   inkscape:connector-curvature="0" /><path
   style="fill:#ff0000;stroke:#ff0000;stroke-width:1.13385827;fill-opacity:1;stroke-opacity:1;stroke-miterlimit:4;stroke-dasharray:none"
   d="M 13.154717,60.61334 C 11.610879,60.328228 10.377775,59.648459 9.2301887,58.44988 8.8981132,58.103049 7.6288315,56.814454 6.4095627,55.586336 5.1902939,54.358217 4.0616154,53.158372 3.9013882,52.920013 3.5694444,52.426202 3.3056604,51.654025 3.3056604,51.176133 c 0,-0.461641 0.2340767,-1.15432 0.5505806,-1.629279 0.1492548,-0.223977 2.2854896,-2.41455 4.7471884,-4.867939 4.1683866,-4.154316 4.5130186,-4.479067 5.0174466,-4.728006 0.926655,-0.457307 1.601181,-0.44575 2.552709,0.04374 0.369005,0.189826 1.004675,0.779426 3.433962,3.185086 2.441827,2.418078 3.058438,2.989693 3.408457,3.159735 0.792211,0.38486 1.711973,0.38106 2.466564,-0.01019 0.234776,-0.12173 1.004224,-0.520428 1.709885,-0.885997 5.064809,-2.623826 11.085939,-7.97756 15.407712,-13.699886 2.043917,-2.706287 3.78302,-5.839351 4.027822,-7.256287 0.07235,-0.418785 0.06657,-0.580725 -0.03502,-0.981132 -0.172451,-0.679692 -0.498252,-1.106611 -1.64218,-2.151858 -0.551991,-0.504373 -1.83844,-1.761474 -2.858775,-2.793558 -1.695866,-1.715393 -1.880554,-1.927906 -2.150944,-2.475003 -0.274355,-0.555119 -0.295787,-0.645251 -0.295787,-1.243908 0,-0.769612 0.188231,-1.246763 0.785792,-1.991921 0.578382,-0.721241 8.596209,-8.6665761 9.063265,-8.9813198 0.478145,-0.3222171 1.229356,-0.5778432 1.698113,-0.5778432 0.479019,0 1.246334,0.2634433 1.747164,0.5998565 0.585988,0.3936133 6.178046,6.0222094 6.5444,6.5871585 0.983914,1.51728 1.289965,2.949882 1.165262,5.454494 -0.156955,3.152388 -1.502724,7.379254 -3.829907,12.029189 -4.217529,8.427026 -11.353286,16.915908 -19.11981,22.745425 -5.601916,4.204771 -12.166445,7.667626 -17.279321,9.115014 -2.768321,0.783676 -5.62388,1.094812 -7.265524,0.791637 z"
   id="path917"
   inkscape:connector-curvature="0" /></svg>