<?xml version="1.0" encoding="UTF-8" standalone="no"?>
<!-- Generator: Adobe Illustrator 19.1.0, SVG Export Plug-In . SVG Version: 6.00 Build 0)  -->

<svg
   xmlns:dc="http://purl.org/dc/elements/1.1/"
   xmlns:cc="http://creativecommons.org/ns#"
   xmlns:rdf="http://www.w3.org/1999/02/22-rdf-syntax-ns#"
   xmlns:svg="http://www.w3.org/2000/svg"
   xmlns="http://www.w3.org/2000/svg"
   xmlns:sodipodi="http://sodipodi.sourceforge.net/DTD/sodipodi-0.dtd"
   xmlns:inkscape="http://www.inkscape.org/namespaces/inkscape"
   version="1.1"
   id="Capa_1"
   x="0px"
   y="0px"
   viewBox="0 0 480.56 480.56"
   style="enable-background:new 0 0 480.56 480.56;"
   xml:space="preserve"
   sodipodi:docname="telephone.svg"
   inkscape:version="0.92.4 (5da689c313, 2019-01-14)"><metadata
   id="metadata907"><rdf:RDF><cc:Work
       rdf:about=""><dc:format>image/svg+xml</dc:format><dc:type
         rdf:resource="http://purl.org/dc/dcmitype/StillImage" /></cc:Work></rdf:RDF></metadata><defs
   id="defs905" /><sodipodi:namedview
   pagecolor="#ffffff"
   bordercolor="#666666"
   borderopacity="1"
   objecttolerance="10"
   gridtolerance="10"
   guidetolerance="10"
   inkscape:pageopacity="0"
   inkscape:pageshadow="2"
   inkscape:window-width="1920"
   inkscape:window-height="1017"
   id="namedview903"
   showgrid="false"
   inkscape:zoom="1.764608"
   inkscape:cx="240.28"
   inkscape:cy="240.28"
   inkscape:window-x="-8"
   inkscape:window-y="-8"
   inkscape:window-maximized="1"
   inkscape:current-layer="Capa_1" />
<g
   id="g870"
   transform="matrix(-1,0,0,1,480.55974,0)">
	<g
   id="g868">
		<path
   d="m 365.354,317.9 c -15.7,-15.5 -35.3,-15.5 -50.9,0 -11.9,11.8 -23.8,23.6 -35.5,35.6 -3.2,3.3 -5.9,4 -9.8,1.8 -7.7,-4.2 -15.9,-7.6 -23.3,-12.2 -34.5,-21.7 -63.4,-49.6 -89,-81 -12.7,-15.6 -24,-32.3 -31.9,-51.1 -1.6,-3.8 -1.3,-6.3 1.8,-9.4 11.9,-11.5 23.5,-23.3 35.2,-35.1 16.3,-16.4 16.3,-35.6 -0.1,-52.1 -9.3,-9.4 -18.6,-18.6 -27.9,-28 -9.6,-9.6 -19.1,-19.3 -28.8,-28.8 -15.7,-15.3 -35.3,-15.3 -50.9,0.1 -12,11.8 -23.5,23.9 -35.7,35.5 -11.3,10.7 -17,23.8 -18.2,39.1 -1.9,24.9 4.2,48.4 12.8,71.3 17.6,47.4 44.4,89.5 76.9,128.1 43.9,52.2 96.3,93.5 157.6,123.3 27.6,13.4 56.2,23.7 87.3,25.4 21.4,1.2 40,-4.2 54.9,-20.9 10.2,-11.4 21.7,-21.8 32.5,-32.7 16,-16.2 16.1,-35.8 0.2,-51.8 -19,-19.1 -38.1,-38.1 -57.2,-57.1 z"
   id="path862"
   inkscape:connector-curvature="0" />
		<path
   d="m 346.254,238.2 36.9,-6.3 c -5.8,-33.9 -21.8,-64.6 -46.1,-89 -25.7,-25.7 -58.2,-41.9 -94,-46.9 l -5.2,37.1 c 27.7,3.9 52.9,16.4 72.8,36.3 18.8,18.8 31.1,42.6 35.6,68.8 z"
   id="path864"
   inkscape:connector-curvature="0" />
		<path
   d="m 403.954,77.8 c -42.6,-42.6 -96.5,-69.5 -156,-77.8 l -5.2,37.1 c 51.4,7.2 98,30.5 134.8,67.2 34.9,34.9 57.8,79 66.1,127.5 l 36.9,-6.3 c -9.7,-56.2 -36.2,-107.2 -76.6,-147.7 z"
   id="path866"
   inkscape:connector-curvature="0" />
	</g>
</g>
<g
   id="g872"
   transform="matrix(-1,0,0,1,480.55974,0)">
</g>
<g
   id="g874"
   transform="matrix(-1,0,0,1,480.55974,0)">
</g>
<g
   id="g876"
   transform="matrix(-1,0,0,1,480.55974,0)">
</g>
<g
   id="g878"
   transform="matrix(-1,0,0,1,480.55974,0)">
</g>
<g
   id="g880"
   transform="matrix(-1,0,0,1,480.55974,0)">
</g>
<g
   id="g882"
   transform="matrix(-1,0,0,1,480.55974,0)">
</g>
<g
   id="g884"
   transform="matrix(-1,0,0,1,480.55974,0)">
</g>
<g
   id="g886"
   transform="matrix(-1,0,0,1,480.55974,0)">
</g>
<g
   id="g888"
   transform="matrix(-1,0,0,1,480.55974,0)">
</g>
<g
   id="g890"
   transform="matrix(-1,0,0,1,480.55974,0)">
</g>
<g
   id="g892"
   transform="matrix(-1,0,0,1,480.55974,0)">
</g>
<g
   id="g894"
   transform="matrix(-1,0,0,1,480.55974,0)">
</g>
<g
   id="g896"
   transform="matrix(-1,0,0,1,480.55974,0)">
</g>
<g
   id="g898"
   transform="matrix(-1,0,0,1,480.55974,0)">
</g>
<g
   id="g900"
   transform="matrix(-1,0,0,1,480.55974,0)">
</g>
</svg>